# xmcd
#
# Track frame offsets: 
#        150
#        11578
#        24172
#        38336
#        54652
#        66870
#        79146
#        94811
#        110917
#        123096
#        135276
#        150359
#        162689
#        173699
#        188380
#        199982
#        208203
#        216604
#        228091
#        243127
#        253147
#        265655
#        282579
#
# Disc length: 3776 seconds
#
# Revision: 2
# Processed by: cddbd v1.5.2PL0 Copyright (c) Steve Scherf et al.
# Submitted via: ExactAudioCopy v0.99pb4
#
DISCID=3b0ebe17
DTITLE=Bob Marley and The Wailers - Wail'n Soul'm Singles Selecta
DYEAR=2005
DGENRE=Reggae
TTITLE0=Bend Down Low
TTITLE1=Freedom Time
TTITLE2=Stir It Up
TTITLE3=This Train
TTITLE4=Nice Time
TTITLE5=Hypocrite
TTITLE6=Mellow Mood
TTITLE7=Thank You Lord
TTITLE8=Bus Dem Shut
TTITLE9=Lyrical Satirical I
TTITLE10=Funeral
TTITLE11=Pound Get A Blow
TTITLE12=Steppin Razor
TTITLE13=Hurtin Inside
TTITLE14=Play Play
TTITLE15=Them Have Fi Get A Beatin'
TTITLE16=Fire Fire
TTITLE17=Don't You Rock My Boat
TTITLE18=Chances Are
TTITLE19=The Lord Will Make A Way Somehow
TTITLE20=Hypocrites  - vocal channel
TTITLE21=Thank Your Lord - vocal channel
TTITLE22=Studio Chat
EXTD=
EXTT0=
EXTT1=
EXTT2=
EXTT3=
EXTT4=
EXTT5=
EXTT6=
EXTT7=
EXTT8=
EXTT9=
EXTT10=
EXTT11=
EXTT12=
EXTT13=
EXTT14=
EXTT15=
EXTT16=
EXTT17=
EXTT18=
EXTT19=
EXTT20=
EXTT21=
EXTT22=
PLAYORDER=
